<svg xmlns="http://www.w3.org/2000/svg" viewBox="0 0 475 450">
  <defs>
    <style>
      .cls-1{fill:#575757}.cls-12{fill:none;stroke:#999}.cls-8{stroke:#575757}.cls-12,.cls-8{stroke-width:2px}.cls-15,.cls-1,.cls-16{fill-rule:evenodd}.cls-8{fill:#db1}.cls-15{fill:#999}.cls-20{fill:#595959}.cls-16{fill:#bfa518}.cls-22{opacity:.5}
    </style>
  </defs>
  <g id="Controller">
    <g id="triggers">
      <rect width="40" height="62" x="110.5" y="259.1" rx="8.2" ry="8.2" style="fill:#575757;stroke:#bbb;stroke-width:2px"/>
      <path d="M43.5 79V57.3s16.3-15.4 46.1-20.4c29.9-5 61.7-9.7 61.7-9.7l5.2 33.3-113 18.7Z" style="fill:#575757;stroke:#bbb;stroke-width:2px;fill-rule:evenodd"/>
      <path d="M431.5 79V57.3s-16.3-15.4-46.1-20.4c-29.8-5-61.6-9.7-61.6-9.7l-5.3 33.3 113 18.7Z" style="stroke-width:2px;fill:#575757;stroke:#bbb;fill-rule:evenodd"/>
    </g>
    <g id="shell">
      <path d="M111.5 230.4c-6.4-.2-12.9 5.2-13.9 10.3-4.6 26.4-24 90.4-29.1 98.6-5.2 8.1-9.7 12.3-22 12.3s-17.3-6.8-20.8-12.7C22.2 332.9 3 293.2 3 235s18.5-124.4 18.5-124.4h216l-61.9 125.2-64-5.4Zm252 0c6.4-.2 12.9 5.2 13.9 10.3 4.6 26.4 24 90.4 29.1 98.6 5.2 8.1 9.7 12.3 22 12.3s17.3-6.8 20.8-12.7c3.5-6 22.7-45.7 22.7-103.9 0-58.1-18.5-124.4-18.5-124.4h-216l61.9 125.9 64-6Z" style="fill:#bbb;fill-rule:evenodd;stroke-width:2px;stroke:#575757"/>
      <path d="m379.5 44-40.6-6-11.1-23.4s-46.8-13-90.3-13-90.3 13.1-90.3 13.1l-11.1 23.4L95.5 44c-46.7 5.3-83 44-83 90.9s32.7 81.6 76 89.8l57.5 11.2a35 35 0 0 1 25.2 28.1c4.2 25.6 11.5 64.7 18.6 95.5 10.8 46.7 20.1 63 22.5 68 2.4 5.1 11.3 21.1 25.2 21.1s22.7-16 25.1-21c2.4-5.1 11.8-21.4 22.6-68 7.1-30.9 14.4-70 18.5-95.5a35 35 0 0 1 25.3-28.2l57.5-11.2a92.2 92.2 0 0 0 76-89.8c0-47-36.3-85.6-83-91Z" style="stroke-width:2px;fill:#bbb;fill-rule:evenodd;stroke:#575757"/>
      <path d="m337 165.1 19 18" style="fill:none;stroke:#999;stroke-width:6px"/>
      <circle cx="91.5" cy="144.1" r="50.5" style="stroke-width:2px;fill:none;stroke:#999"/>
      <circle cx="237.5" cy="256.1" r="49.5" style="fill:#999"/>
      <path d="m136.7 39 19.9 82.3-8.7-105.7L136.7 39zm201.6 0-19.9 82.3 8.7-105.7L338.3 39z" class="cls-15"/>
      <ellipse cx="399.5" cy="128.1" rx="34.5" ry="35.5" style="stroke-width:2px;fill:none;stroke:#999"/>
      <polygon class="cls-1" points="237.5 226.08 216.29 234.16 209.21 256.08 216.29 278 237.5 286.08 258.71 278 265.79 256.08 258.71 234.16 237.5 226.08"/>
    </g>
    <g id="buttons1">
      <circle cx="91.7" cy="144.8" r="7.7" style="fill:#9e9ca1"/>
      <circle cx="237.5" cy="160.1" r="19" style="fill:#c32;stroke-width:2px;stroke:#575757"/>
      <circle cx="363.5" cy="191.1" r="19" style="fill:#15d;stroke-width:2px;stroke:#575757"/>
      <circle cx="329.5" cy="156.1" r="19" style="fill:#1a6;stroke-width:2px;stroke:#575757"/>
      <rect width="78" height="28" x="52.5" y="130.1" class="cls-20" rx="6" ry="6"/>
      <rect width="28" height="78" x="77.5" y="105.1" class="cls-20" rx="6" ry="6"/>
      <circle cx="428.6" cy="128.1" r="14.5" class="cls-8"/>
      <circle cx="370.4" cy="128.1" r="14.5" class="cls-8"/>
      <circle cx="399.5" cy="99" r="14.5" class="cls-8"/>
      <circle cx="399.5" cy="157.1" r="14.5" class="cls-8"/>
    </g>
    <g id="letters">
      <path d="M120 47.4h3.7v14.3h4.2v2.7h-8v-17Zm226 0h4.4c1.6 0 2.9.3 3.6.9.7.6 1 1.6 1 3v.7c0 1.2-.2 2.1-.7 2.7-.5.6-1.4 1-2.6 1.2 1.2 0 2.1.5 2.6 1s.8 1.8.8 3.3v4.1h-3.6v-5.2c0-.8 0-1.4-.3-1.6-.2-.2-.7-.3-1.4-.3h-.4v7.1h-3.3v-17Zm3.4 2.5v4.8h.3c.7 0 1.2-.2 1.4-.4.3-.3.4-.8.4-1.6v-.9c0-.7-.1-1.2-.4-1.5-.2-.3-.7-.4-1.4-.4h-.3Z" class="cls-22"/>
      <path d="m70 150.6-11-6.5 11-6.5v13z" class="cls-15"/>
      <path d="M126.9 282.6h7.6v3.1l-4.7 11.4h4.7v2.5h-8v-3.3l4.6-11.3H127v-2.4Z" style="fill:#c7c7c7"/>
      <path d="M228 157.4v.7h-2v-1.4l-.5-.2c-.2 0-.3 0-.3.2l-.1.5v.7l.1.6.7.7.8.6.2.1.8.8.2.6.1.8v.6c0 .8-.2 1.4-.7 1.8-.4.4-1 .6-1.9.6s-1.5-.2-1.8-.6c-.4-.4-.6-1-.6-1.9v-.7h2v1.5c0 .2.3.1.5.1l.4-.1.2-.7v-.3c0-.3 0-.6-.2-.8l-.8-.7-.8-.7c-.4-.3-.7-.6-.8-1a2 2 0 0 1-.3-1.1v-.9c0-.6.2-1.1.7-1.5s1-.6 1.8-.6 1.3.1 1.7.5.5 1 .5 1.8Zm.7-2.2h4.9v1.5H232v8.2h-2v-8.2h-1.4v-1.5Zm7.3 0h2.4l1.6 9.7h-2l-.2-2h-1.6l-.3 2h-1.7l1.7-9.7Zm1 1.7-.5 4.5h1.2l-.6-4.5Zm4.4-1.7h2.4c.9 0 1.6.2 2 .6.4.3.6.9.6 1.7v.4c0 .7-.2 1.2-.5 1.5-.3.4-.7.6-1.4.7.7 0 1.2.3 1.4.6.3.4.5 1 .5 1.9v2.3h-2v-3c0-.4 0-.7-.2-.9l-.8-.2h-.2v4.1h-1.8v-9.7Zm1.8 1.5v2.7h.2c.4 0 .6 0 .8-.2l.2-.9v-.5c0-.4 0-.7-.2-.9l-.8-.2h-.2Zm3.9-1.5h4.9v1.5h-1.5v8.2h-2v-8.2h-1.4v-1.5Zm110.4 29.4h4.3l2.7 17h-3.2l-.5-3.6H358l-.5 3.6h-3l3-17Zm2 3-1 7.8h2l-.9-7.9Zm-38.5-38h4.2c1.6 0 2.8.3 3.5.9.7.6 1 1.6 1 3v.7c0 1-.2 1.8-.6 2.4-.4.5-1 1-1.9 1.1 1 .2 1.6.6 2 1.1.6.6.8 1.4.8 2.3v1.5c0 1.4-.3 2.4-1 3-.8.7-2 1-3.6 1H321v-17Zm3.2 2.5v4.5h.3c.7 0 1.1-.2 1.4-.4.3-.3.4-.8.4-1.4v-1c0-.6-.2-1-.4-1.3-.3-.3-.7-.4-1.4-.4h-.3Zm0 6.9v5.1h.4c.7 0 1.3-.1 1.6-.4s.4-.9.4-1.6v-1c0-.8-.2-1.4-.4-1.7-.3-.3-.9-.4-1.6-.4h-.4Z" class="cls-22"/>
      <path d="M425 135.1v-14l11 7-11 7zm-50-14-11 7 11 7v-14z" class="cls-16"/>
      <path d="M404 123v.7h-3.4v-.4c0-1 0-1.7-.2-2s-.5-.6-1-.6-.7.2-.8.5-.3 1-.3 2.1v7c0 1 0 1.7.3 2s.5.5.9.5.7-.1.9-.4.2-1 .2-1.9v-.9h3.4v1c0 1.7-.3 3-1 3.7-.6.8-1.8 1.1-3.4 1.1-1.8 0-3-.4-3.8-1.2-.7-.9-1-2.4-1-4.7V124c0-2.3.3-3.9 1-4.7s2-1.3 3.8-1.3c1.6 0 2.8.4 3.4 1.1.7.7 1 2 1 3.8Z" class="cls-22"/>
      <path d="m392.5 153.6 7 11 7-11h-14zm14-50h-14l7-11 7 11z" class="cls-16"/>
      <path d="m98 165.6-6.5 11-6.5-11h13zm-6.5-54 6.5 11H85l6.5-11zm32.5 32.5-11 6.5v-13l11 6.5z" class="cls-15"/>
    </g>
  </g>
</svg>
