<svg xmlns="http://www.w3.org/2000/svg" viewBox="0 0 500 480">
  <defs>
    <style>.cls-12{fill:none;stroke:#999}.cls-8{stroke:#575757}.cls-12,.cls-7,.cls-8{stroke-width:2px}.cls-15,.cls-16{fill-rule:evenodd}.cls-7{fill:#575757;stroke:#bbb}.cls-8{fill:#db1}.cls-15{fill:#999}.cls-21{fill:#595959}.cls-16{fill:#bfa518}.cls-23{opacity:.5}
    </style>
  </defs>
  <g id="Controller">
    <g id="triggers">
      <rect width="40" height="62" x="123" y="288" class="cls-7" rx="8.2" ry="8.2"/>
      <path d="M57.5 27.9v-8.6c0-4.5 3.6-8.2 8.1-8.2L148.4 4a8 8 0 0 1 8.1 8.1V28a8 8 0 0 1-8.1 8.1H65.6a8.1 8.1 0 0 1-8.1-8.1Zm390 0v-8.6c0-4.5-3.6-8.2-8.1-8.2L356.6 4a8.1 8.1 0 0 0-8.1 8.1V28a8 8 0 0 0 8.1 8.1h82.8a8 8 0 0 0 8.1-8.1Z" class="cls-7"/>
      <path d="M56 108V86.1s16.3-15.4 46.1-20.4c29.9-5 61.7-9.7 61.7-9.7l5.2 33.3L56 108Z" style="fill:#575757;stroke:#bbb;stroke-width:2px;fill-rule:evenodd"/>
      <path d="M444 108V86.1s-16.3-15.4-46.1-20.4c-29.8-5-61.6-9.7-61.6-9.7L331 89.3 444 108Z" style="stroke-width:2px;fill:#575757;stroke:#bbb;fill-rule:evenodd"/>
    </g>
    <g id="shell">
      <path d="M124 259.3c-6.4-.1-12.9 5.2-13.9 10.3-4.6 26.4-24 90.4-29.1 98.6-5.2 8.2-9.7 12.3-22 12.3s-17.3-6.7-20.8-12.7c-3.5-6-22.7-45.7-22.7-103.8S34 139.5 34 139.5h216l-61.9 125.2-64-5.4Zm252 0c6.4-.1 12.9 5.2 13.9 10.3 4.6 26.4 24 90.4 29.1 98.6 5.2 8.2 9.7 12.3 22 12.3s17.3-6.7 20.8-12.7c3.5-6 22.7-45.7 22.7-103.8 0-58.2-18.5-124.5-18.5-124.5H250l61.9 125.9 64-6Z" style="fill:#bbb;fill-rule:evenodd;stroke-width:2px;stroke:#575757"/>
      <path d="M392 72.9 351.4 67l-11.1-23.4S293.5 30.5 250 30.5s-90.3 13.1-90.3 13.1L148.6 67 108 73c-46.7 5.3-83 44-83 90.9s32.7 81.6 76 89.8l57.5 11.2a35 35 0 0 1 25.3 28.2c4 25.5 11.4 64.6 18.5 95.4 10.8 46.7 20.1 63 22.5 68 2.5 5.1 11.3 21.1 25.2 21.1s22.7-16 25.1-21c2.5-5.1 11.8-21.4 22.6-68 7.1-30.9 14.4-70 18.5-95.5a35 35 0 0 1 25.3-28.2l57.5-11.2a92.2 92.2 0 0 0 76-89.8c0-47-36.3-85.6-83-91Z" style="stroke-width:2px;fill:#bbb;fill-rule:evenodd;stroke:#575757"/>
      <path d="m349.5 194 19 18" style="fill:none;stroke:#999;stroke-width:6px"/>
      <circle cx="104" cy="173" r="50.5" style="stroke-width:2px;fill:none;stroke:#999"/>
      <circle cx="250" cy="285" r="49.5" style="fill:#999"/>
      <path d="m149.2 67.9 19.9 82.3-8.7-105.7-11.2 23.4zm201.6 0-19.9 82.3 8.7-105.7 11.2 23.4z" class="cls-15"/>
      <ellipse cx="412" cy="157" rx="34.5" ry="35.5" style="stroke-width:1.99px;fill:none;stroke:#999"/>
      <path d="m250 252-23.3 9.7L217 285l9.7 23.3L250 318l23.3-9.7L283 285l-9.7-23.3L250 252z" style="fill:#56575b;fill-rule:evenodd"/>
    </g>
    <g id="buttons1">
      <circle cx="104.2" cy="173.7" r="7.7" style="fill:#9e9ca1"/>
      <circle cx="250" cy="189" r="19" style="stroke-width:2px;stroke:#575757;fill:#c32"/>
      <circle cx="376" cy="220" r="19" style="fill:#15d;stroke-width:2px;stroke:#575757"/>
      <circle cx="342" cy="185" r="19" style="fill:#1a6;stroke-width:2px;stroke:#575757"/>
      <rect width="78" height="28" x="65" y="159" class="cls-21" rx="6" ry="6"/>
      <rect width="28" height="78" x="90" y="134" class="cls-21" rx="6" ry="6"/>
      <circle cx="441.1" cy="157" r="14.5" class="cls-8"/>
      <circle cx="382.9" cy="157" r="14.5" class="cls-8"/>
      <circle cx="412" cy="127.9" r="14.5" class="cls-8"/>
      <circle cx="412" cy="186.1" r="14.5" class="cls-8"/>
    </g>
    <g id="letters">
      <path d="M104 12.5h3.7v14.4h4.3v2.6h-8v-17Zm288.5 0h4.3c1.7 0 2.9.3 3.6 1 .7.5 1.1 1.5 1.1 3v.7c0 1.2-.2 2-.8 2.7-.5.6-1.4 1-2.6 1.1 1.3.1 2.1.5 2.7 1.1s.7 1.7.7 3.2v4.2H398v-5.2c0-.9-.1-1.4-.4-1.7-.2-.2-.7-.3-1.4-.3h-.4v7.2h-3.3v-17Zm3.3 2.5v4.8h.3c.7 0 1.2-.1 1.4-.4.3-.3.4-.8.4-1.5v-1c0-.7 0-1.2-.3-1.4-.3-.3-.8-.5-1.5-.5h-.3Z" style="fill:#bbb"/>
      <path d="m82.5 179.5-11-6.5 11-6.5v13z" class="cls-15"/>
      <path d="M139.4 311.5h7.6v3.1l-4.7 11.4h4.7v2.5h-8v-3.3l4.6-11.3h-4.2v-2.4Z" style="fill:#c7c7c7"/>
      <path d="M240.4 186.3v.7h-1.9v-1.4l-.5-.1-.3.1-.1.6v.6l.1.6.7.7.8.6.2.2.8.8.2.6.1.8v.6c0 .7-.2 1.3-.7 1.7-.4.4-1 .6-1.9.6s-1.5-.2-1.8-.6c-.4-.4-.6-1-.6-1.9v-.7h2v1.5l.5.2c.2 0 .4 0 .4-.2.1-.1.2-.3.2-.7v-.3c0-.3 0-.5-.2-.7l-.8-.8-.8-.6c-.4-.3-.7-.7-.8-1-.2-.3-.3-.7-.3-1.2v-.8c0-.7.2-1.2.7-1.6s1-.6 1.8-.6 1.3.2 1.7.6.5 1 .5 1.7Zm.8-2.2h4.9v1.5h-1.5v8.2h-2v-8.2h-1.4v-1.5Zm7.2 0h2.5l1.6 9.7h-2l-.2-2h-1.6l-.3 2h-1.7l1.7-9.7Zm1.2 1.7-.6 4.5h1.2l-.6-4.5Zm4.3-1.7h2.4a3 3 0 0 1 2 .6c.3.3.5.9.5 1.7v.4c0 .7 0 1.2-.4 1.5-.3.4-.7.6-1.4.7.7 0 1.2.3 1.4.6.3.4.5 1 .5 1.9v2.3h-2v-3c0-.4 0-.7-.2-.9l-.8-.1h-.2v4H254v-9.6Zm1.8 1.5v2.7h.2c.4 0 .6 0 .8-.2l.2-.9v-.5c0-.4 0-.7-.2-.9l-.8-.2h-.2Zm3.9-1.5h4.9v1.5H263v8.2h-2v-8.2h-1.4v-1.5ZM370 213.5h4.3l2.7 17h-3.2l-.5-3.6h-2.8l-.5 3.6h-3l3-17Zm2 3-1 7.8h2l-.9-7.9Zm-38.5-38h4.2c1.6 0 2.8.3 3.5 1 .7.5 1 1.5 1 3v.6c0 1-.2 1.8-.6 2.4-.4.6-1 1-1.9 1.1 1 .2 1.6.6 2 1.2.6.5.8 1.3.8 2.2v1.6c0 1.4-.3 2.4-1 3-.8.6-2 .9-3.6.9h-4.4v-17Zm3.2 2.5v4.5h.3c.7 0 1.1-.2 1.4-.4.3-.3.4-.8.4-1.4v-1c0-.6-.2-1-.4-1.3-.3-.3-.7-.4-1.4-.4h-.3Zm0 6.9v5.1h.4c.7 0 1.3-.1 1.6-.4s.4-.8.4-1.6v-1c0-.8-.2-1.4-.4-1.7-.3-.3-.9-.4-1.6-.4h-.4Z" class="cls-23"/>
      <path d="M437.5 164v-14l11 7-11 7zm-50-14-11 7 11 7v-14z" class="cls-16"/>
      <path d="M416.5 152v.6h-3.4v-.4c0-1 0-1.7-.2-2s-.5-.6-1-.6-.7.2-.8.5-.3 1-.3 2.1v7c0 1 0 1.7.3 2s.5.6.9.6.7-.2.9-.5.2-1 .2-1.8v-1h3.4v1c0 1.8-.3 3-1 3.8-.6.7-1.8 1-3.4 1-1.8 0-3-.4-3.8-1.2-.7-.9-1-2.4-1-4.7V153c0-2.3.3-3.9 1-4.7s2-1.3 3.8-1.3c1.6 0 2.8.4 3.4 1.1.7.8 1 2 1 3.8Z" class="cls-23"/>
      <path d="m405 182.5 7 11 7-11h-14zm14-50h-14l7-11 7 11z" class="cls-16"/>
      <path d="m110.5 194.5-6.5 11-6.5-11h13zm-6.5-54 6.5 11h-13l6.5-11zm32.5 32.5-11 6.5v-13l11 6.5z" class="cls-15"/>
    </g>
  </g>
</svg>
