<?xml version="1.0" encoding="UTF-8" standalone="no"?>
<svg
   width="6939.9795"
   height="6772.564"
   viewBox="0 0 6939.9795 6772.564"
   version="1.1"
   xml:space="preserve"
   style="clip-rule:evenodd;fill-rule:evenodd;stroke-linejoin:round;stroke-miterlimit:2"
   id="svg21"
   sodipodi:docname="Controller.svg"
   inkscape:version="1.1 (c68e22c387, 2021-05-23)"
   xmlns:inkscape="http://www.inkscape.org/namespaces/inkscape"
   xmlns:sodipodi="http://sodipodi.sourceforge.net/DTD/sodipodi-0.dtd"
   xmlns="http://www.w3.org/2000/svg"
   xmlns:svg="http://www.w3.org/2000/svg"
   xmlns:serif="http://www.serif.com/"><defs
   id="defs25" /><sodipodi:namedview
   id="namedview23"
   pagecolor="#ffffff"
   bordercolor="#666666"
   borderopacity="1.0"
   inkscape:pageshadow="2"
   inkscape:pageopacity="0.0"
   inkscape:pagecheckerboard="0"
   showgrid="false"
   inkscape:zoom="0.28240146"
   inkscape:cx="-426.69751"
   inkscape:cy="3454.3023"
   inkscape:window-width="1920"
   inkscape:window-height="1017"
   inkscape:window-x="-8"
   inkscape:window-y="-8"
   inkscape:window-maximized="1"
   inkscape:current-layer="svg21" />
    <path
   id="Dark-Grey-Background"
   serif:id="Dark Grey Background"
   d="m 3485.9791,2.5878528 c -1.71,-0.78 -3.6,-1.238 -5.6,-1.297 -525.25,-15.5149998 -954.91,110.6419972 -1348.31,280.6919972 -2.27,0.98 -4.25,2.52 -5.76,4.47 0,0 -86.49,112.05 -105.13,136.2 0,0 -989.45,162.11 -989.45,162.11 -0.56,0.09 -1.12,0.21 -1.67,0.37 -142.02997,40.9 -291.90997,136.24 -414.18997,238.67 -3.08,2.58 -4.96,6.31 -5.19,10.31 l -9.22,154.89 c -397.1,377.01005 -526.315002,926.87005 -478.774,1404.51005 -206.973002,965.88 -169.652002,1797.32 247.614,2723.75 0.61,1.36 1.43,2.62 2.42,3.73 89.88,100.63 180.14,153.26 270.03,163.16 90.43,9.96 181.08,-23.11 271.52,-96.36 1.06,-0.86 2,-1.86 2.78,-2.98 330.65997,-473.66 461.42997,-1013.94 513.02997,-1580.62 19.77,-56.61 61.28,-80.79 107.84,-97.21 225.55,-7.03 435.22,25.53 620.94,118.06 0.04,0.02 0.09,0.04 0.14,0.07 103.14,50 177.58,120.18 198.4,228.3 115.43,802.65 268.91,1602.12 532.91,2392.38 0.04,0.14 0.09,0.27 0.14,0.4 139.45,380.18 375.31,489.92 510.3,519.84 35.72,7.92 102.14,8.67 137.97,2.07 135.64,-24.99 371.27,-139.55 510.81,-519.95 0.05,-0.13 0.09,-0.27 0.14,-0.4 264,-790.27 417.47,-1589.73 532.91,-2392.38 20.81,-108.12 95.26,-178.3 198.4,-228.31 0.05,-0.02 0.09,-0.04 0.14,-0.07 185.72,-92.52 395.39,-125.08 620.93,-118.05 46.57,16.42 88.08,40.59 107.85,97.21 51.6,566.67 182.37,1106.96 513.03,1580.61 0.78,1.12 1.72,2.13 2.78,2.99 90.44,73.25 181.09,106.31 271.52,96.36 89.88,-9.9 180.14,-62.53 270.03,-163.17 0.99,-1.11 1.81,-2.37 2.42,-3.72 417.27,-926.44 454.59,-1757.87 247.61,-2723.76 47.54,-477.64 -81.67,-1027.49 -478.78,-1404.50005 0,0 -9.21,-154.89 -9.21,-154.89 -0.23,-4.01 -2.11,-7.74 -5.19,-10.31 -122.28,-102.44 -272.16,-197.77 -414.19,-238.67 -0.55,-0.16 -1.11,-0.28 -1.68,-0.38 l -989.44,-162.1 c 0,0 -105.13,-136.2 -105.13,-136.2 -1.51,-1.95 -3.49,-3.49 -5.76,-4.47 -386.8,-167.19 -808.64,-291.9589972 -1321.93,-281.3549972 z"
   style="fill:#5c5c5c" />
    <path
   id="Grey-Shell"
   serif:id="Grey Shell"
   d="m 129.11213,2272.3629 c 3.836,0.28 7.094,3.2 7.645,7.16 108.792,782.13 632.762,1093.25 1390.74197,1211.43 1.92,0.3 3.58,1.23 4.81,2.55 0.97,-0.35 1.94,-0.69 2.91,-1.02 228.94,-7.4 441.71,25.63 630.14,119.5 107.7,52.22 184.8,126.04 206.42,239.02 115.32,801.9 268.6,1600.64 532.36,2390.17 136.78,372.89 367.36,481.28 499.76,510.63 34.22,7.58 97.85,8.28 132.18,1.95 132.96,-24.49 362.98,-137.73 499.76,-510.62 263.76,-789.53 417.03,-1588.27 532.35,-2390.17 21.62,-112.98 98.73,-186.8 206.43,-239.02 188.43,-93.87 401.2,-126.9 630.13,-119.51 l 1.09,0.38 c 1.24,-2 3.31,-3.47 5.81,-3.86 757.98,-118.18 1281.96,-429.3 1390.75,-1211.43 0.59,-4.26 4.32,-7.32 8.54,-7.18 15.5,-444.61 -123.18,-932.43 -486.64,-1274.75005 l -9.55,-160.66 c -120.74,-101.14 -268.63,-195.44 -408.86,-235.83 l -995.12,-163.03 -108.64,-140.75 c -391.6,-169.26 -819.27,-294.9419972 -1342.1,-279.499997 l 19.92,-1.95 c -522.83,-15.44900015 -950.5,110.229997 -1342.1,279.499997 l -108.64,140.74 -995.12,163.04 c -140.23997,40.38 -288.11997,134.69 -408.85997,235.83 l -9.55,160.65 c -363.98,342.80005 -502.532,831.53005 -486.567,1276.73005 z m 6676.29697,93 c -133.83,723.88 -644.74,1022.32 -1374.29,1139.38 40.8,18.15 75.33,45.7 93.14,98.34 51.26,564.76 181.12,1103.32 510.63,1575.34 173.83,140.8 347.66,129.44 521.49,-65.19 416.2,-924.07 452.99,-1753.32 246.17,-2716.94 1.04,-10.28 1.99,-20.59 2.86,-30.93 z m -6669.80897,9.89 c 0.58,6.41 1.186,12.75 1.824,19.08 -206.821002,963.62 -170.028002,1792.87 246.175,2716.94 173.83,194.63 347.66,205.99 521.49,65.19 329.50997,-472.01 459.36997,-1010.58 510.62997,-1575.34 17.31,-51.17 50.42,-78.63 89.73,-96.79 -724.84997,-116.82 -1233.36997,-413.23 -1369.84897,-1129.08 z m 3335.60897,720.31 c -436.89,0 -791.59,354.7 -791.59,791.59 0,436.89 354.7,791.59 791.59,791.59 436.9,0 791.6,-354.7 791.6,-791.59 0,-436.89 -354.7,-791.59 -791.6,-791.59 z m 1801.72,-441.53 c -164.06,0 -297.27,133.2 -297.27,297.27 0,164.06 133.21,297.26 297.27,297.26 164.07,0 297.27,-133.2 297.27,-297.26 0,-164.07 -133.2,-297.27 -297.27,-297.27 z m -4001.01,-1255.22 c -419.53997,0 -760.25997,348.41 -760.25997,777.66 0,429.26 340.72,777.67 760.25997,777.67 419.55,0 760.27,-348.41 760.27,-777.67 0,-429.25 -340.72,-777.66 -760.27,-777.66 z m 2194.49,736.27 c -172.49,0 -312.53,140.04 -312.53,312.54 0,172.49 140.04,312.53 312.53,312.53 172.5,0 312.54,-140.04 312.54,-312.53 0,-172.5 -140.04,-312.54 -312.54,-312.54 z m 1311.03,-26.45 c -164.07,0 -297.27,133.2 -297.27,297.27 0,164.06 133.2,297.27 297.27,297.27 164.07,0 297.27,-133.21 297.27,-297.27 0,-164.07 -133.2,-297.27 -297.27,-297.27 z m 1207.81,-613.24 c -39.72,-55.83 -104.95,-92.27 -178.63,-92.27 -75.78,0 -142.62,38.56 -181.96,97.09 -137.8,54.15 -247.39,166.45 -299.78,307.38 -69.08,36.88 -116.14,109.69 -116.14,193.4 0,85.87 49.51,160.26 121.51,196.18 53.04,131.36 156.31,236.28 285.32,289.86 37.57,66.73 109.08,111.84 191.05,111.84 79.94,0 149.94,-42.9 188.2,-106.92 136.87,-52.73 246.3,-162.68 300.17,-301.23 65.44,-37.91 109.51,-108.71 109.51,-189.73 0,-78.8 -41.69,-147.94 -104.2,-186.54 -52.89,-148.48 -168.99,-266.13 -315.05,-319.06 z m -3982.31,-845.67005 c -0.28,0.62 -0.35,1.32 -0.2,1.99 l 280.72,1220.91005 c 0.37,1.6 1.91,2.64 3.53,2.39 1.62,-0.26 2.77,-1.72 2.63,-3.35 l -129.22,-1555.10005 c -0.11,-1.42 -1.18,-2.58 -2.58,-2.82 -1.4,-0.24 -2.79,0.49 -3.38,1.79 z m 2924.76,1.99 c 0.15,-0.67 0.08,-1.37 -0.2,-1.99 l -151.5,-334.19 c -0.59,-1.3 -1.98,-2.03 -3.38,-1.79 -1.4,0.24 -2.46,1.4 -2.58,2.82 l -129.22,1555.10005 c -0.14,1.63 1.01,3.09 2.63,3.35 1.62,0.25 3.16,-0.79 3.53,-2.39 z m -29.03,-173.21 -2.99,1.2 -0.35,3.2 50.19,108.04 2.77,1.81 c 0,0 315.81,58.77 455.17,62.18 367.95,9.03 680.85,107.79 902.79,312.71 0.95,0.88 2.33,1.08 3.49,0.51 1.16,-0.57 1.85,-1.79 1.74,-3.08 l -9.33,-107.08 c -0.07,-0.79 -0.44,-1.52 -1.02,-2.05 -171.19,-154.53 -469.35,-286.15 -961.53,-313.93 -38.87,-2.19 -440.93,-63.51 -440.93,-63.51 z m -2855.68,4.4 -0.35,-3.2 -3,-1.2 c 0,0 -402.06,61.32 -440.93,63.51 -492.17,27.78 -790.32997,159.4 -961.51997,313.93 -0.59,0.53 -0.95,1.26 -1.02,2.05 l -9.33,107.08 c -0.12,1.29 0.57,2.51 1.73,3.08 1.16,0.57 2.55,0.37 3.5,-0.51 221.94,-204.92 534.83997,-303.68 902.77997,-312.71 139.36,-3.41 455.17,-62.18 455.17,-62.18 l 2.78,-1.81 z"
   style="fill:#bcbdbf" />
    <path
   id="Grey-D-Pad---C---Circles"
   serif:id="Grey D-Pad - C - Circles"
   d="m 1271.9191,1407.1429 c 415.01,0 751.93,344.73 751.93,769.33 0,424.61 -336.92,769.34 -751.93,769.34 -414.99997,0 -751.91997,-344.73 -751.91997,-769.34 0,-424.6 336.92,-769.33 751.91997,-769.33 z m -232.71,541.99 H 769.56913 c -48.83,0 -88.48,39.64 -88.48,88.48 v 279.93 c 0,48.83 39.65,88.48 88.48,88.48 0,0 269.63997,0 269.63997,0 0,61.15 0,269.63 0,269.63 0,48.84 39.64,88.48 88.48,88.48 h 279.93 c 48.83,0 88.48,-39.64 88.48,-88.48 0,0 0,-208.48 0,-269.63 0,0 269.63,0 269.63,0 48.83,0 88.48,-39.65 88.48,-88.48 0,0 0,-279.93 0,-279.93 0,-48.84 -39.65,-88.48 -88.48,-88.48 h -269.63 c 0,0 0,-269.63 0,-269.63 0,-48.84 -39.65,-88.49 -88.48,-88.49 h -279.93 c -48.84,0 -88.48,39.65 -88.48,88.49 0,0 0,269.63 0,269.63 z m 4953.91,-441.89 c 135.65,52.68 243.76,162.58 295.91,300.71 -30.86,-16.61 -66.15,-26.04 -103.62,-26.04 -120.92,0 -219.09,98.17 -219.09,219.08 0,120.92 98.17,219.09 219.09,219.09 35.27,0 68.61,-8.35 98.13,-23.18 -52.91,128.86 -155.03,231.55 -282.3,283.53 15.63,-30.14 24.47,-64.37 24.47,-100.65 0,-120.91 -98.17,-219.08 -219.09,-219.08 -120.92,0 -219.09,98.17 -219.09,219.08 0,34.26 7.88,66.69 21.92,95.58 -119.92,-52.66 -216.22,-150.76 -268.03,-273 26.52,11.4 55.74,17.72 86.41,17.72 120.92,0 219.09,-98.17 219.09,-219.09 0,-120.91 -98.17,-219.08 -219.09,-219.08 -32.83,0 -63.98,7.23 -91.93,20.19 51.34,-131.16 153.3,-236.17 281.21,-289.83 -18.8,32.31 -29.58,69.88 -29.58,109.94 0,120.91 98.17,219.08 219.09,219.08 120.92,0 219.09,-98.17 219.09,-219.08 0,-42.16 -11.93,-81.54 -32.59,-114.97 z"
   style="fill:#9e9ca1" />
    <path
   id="Dark-Grey-D-Pad---C"
   serif:id="Dark Grey D-Pad - C"
   d="M 1055.8691,1965.7929 H 769.56913 c -39.63,0 -71.81,32.18 -71.81,71.82 v 279.93 c 0,39.64 32.18,71.81 71.81,71.81 h 286.29997 v 286.3 c 0,39.64 32.18,71.82 71.82,71.82 h 279.93 c 39.63,0 71.81,-32.18 71.81,-71.82 v -286.3 h 286.3 c 39.64,0 71.82,-32.17 71.82,-71.81 v -279.93 c 0,-39.64 -32.18,-71.82 -71.82,-71.82 h -286.3 v -286.29 c 0,-39.64 -32.18,-71.82 -71.81,-71.82 h -279.93 c -39.64,0 -71.82,32.18 -71.82,71.82 z m 984.28,-1484.20005 c 0,0 -402.36,61.34 -441.26,63.54 -491.16,27.73 -788.76997,158.91 -959.60997,313.13 l -9.33,107.08 c 222.45,-205.38 536.02997,-304.49 904.82997,-313.53 139.36,-3.42 455.18,-62.18 455.18,-62.18 z m 2858.01,0 c 0,0 402.37,61.34 441.27,63.54 491.16,27.73 788.76,158.91 959.6,313.13 l 9.34,107.08 c -222.46,-205.38 -536.04,-304.49 -904.83,-313.53 -139.36,-3.42 -455.19,-62.18 -455.19,-62.18 z"
   style="fill:#56575b" />
    <path
   id="Grey-Shading"
   serif:id="Grey Shading"
   d="m 2005.7891,651.01285 280.72,1220.91005 -129.22,-1555.10005 z m 2918.86,0 -280.72,1220.91005 129.22,-1555.10005 z"
   style="fill:#8c8c8c" />
    <path
   id="Grey-Analog-Stick-Outer-Circle"
   serif:id="Grey Analog Stick Outer Circle"
   d="m 3471.2091,3103.8929 c 432.3,0 783.26,350.97 783.26,783.26 0,432.29 -350.96,783.26 -783.26,783.26 -432.29,0 -783.25,-350.97 -783.25,-783.26 0,-432.29 350.96,-783.26 783.25,-783.26 z m 0,372.23 c -226.85,0 -411.03,184.17 -411.03,411.03 0,226.85 184.18,411.03 411.03,411.03 226.86,0 411.03,-184.18 411.03,-411.03 0,-226.86 -184.17,-411.03 -411.03,-411.03 z"
   style="fill:#6d7278" />
    <g
   id="Light-Grey-Analog-Stick"
   serif:id="Light Grey Analog Stick"
   transform="matrix(0.482213,0,0,0.482213,1404.3691,1505.5529)">
        <circle
   cx="4286.1602"
   cy="4938.8799"
   r="783.258"
   style="fill:#e1e4ed"
   id="circle8" />
    </g>
    <path
   id="Yellow-Buttons"
   serif:id="Yellow Buttons"
   d="m 5806.6191,2169.0329 c 116.32,0 210.76,94.44 210.76,210.75 0,116.32 -94.44,210.76 -210.76,210.76 -116.32,0 -210.75,-94.44 -210.75,-210.76 0,-116.31 94.43,-210.75 210.75,-210.75 z m 0,-757.58 c 116.32,0 210.76,94.44 210.76,210.76 0,116.32 -94.44,210.75 -210.76,210.75 -116.32,0 -210.75,-94.43 -210.75,-210.75 0,-116.32 94.43,-210.76 210.75,-210.76 z m 168.04,589.54 c 0,-116.31 94.43,-210.75 210.75,-210.75 116.32,0 210.76,94.44 210.76,210.75 0,116.32 -94.44,210.76 -210.76,210.76 -116.32,0 -210.75,-94.44 -210.75,-210.76 z m -757.58,0 c 0,-116.31 94.44,-210.75 210.75,-210.75 116.32,0 210.76,94.44 210.76,210.75 0,116.32 -94.44,210.76 -210.76,210.76 -116.31,0 -210.75,-94.44 -210.75,-210.76 z"
   style="fill:#ffdc1f" />
    <g
   id="Green-Button"
   serif:id="Green Button"
   transform="translate(-844.08087,-1000.7159)">
        <circle
   cx="5621.52"
   cy="3406.6201"
   r="288.935"
   style="fill:#0cc77b"
   id="circle12" />
    </g>
    <g
   id="Blue-Button"
   serif:id="Blue Button"
   transform="translate(-348.58787,-455.31715)">
        <circle
   cx="5621.52"
   cy="3406.6201"
   r="288.935"
   style="fill:#194edc"
   id="circle15" />
    </g>
    <g
   id="Red-Button"
   serif:id="Red Button"
   transform="translate(-794.17517,-982.89245)">
        <circle
   cx="4260.5898"
   cy="3430.51"
   r="295.87"
   style="fill:#ec3f21"
   id="circle18" />
    </g>
</svg>
